<?xml version="1.0" encoding="utf-8"?>
<!-- Svg Vector Icons : http://www.onlinewebfonts.com/icon -->
<!DOCTYPE svg PUBLIC "-//W3C//DTD SVG 1.1//EN" "http://www.w3.org/Graphics/SVG/1.1/DTD/svg11.dtd">
<svg version="1.1" xmlns="http://www.w3.org/2000/svg" xmlns:xlink="http://www.w3.org/1999/xlink" x="0px" y="0px" viewBox="0 0 1000 1000" enable-background="new 0 0 1000 1000" xml:space="preserve">
<metadata> Svg Vector Icons : http://www.onlinewebfonts.com/icon </metadata>
<g><g><path d="M500,10C229.4,10,10,229.4,10,500c0,270.6,219.4,490,490,490c270.6,0,490-219.4,490-490C990,229.4,770.6,10,500,10z M500,156.5c89.5,0,162.1,72.6,162.1,162.1c0,89.5-72.6,162.1-162.1,162.1c-89.5,0-162.1-72.6-162.1-162.1C337.9,229.1,410.5,156.5,500,156.5z M499.9,861.9c-89.3,0-171.1-32.5-234.2-86.3c-15.4-13.1-24.2-32.3-24.2-52.5c0-90.8,73.5-163.4,164.3-163.4h188.6c90.8,0,164,72.6,164,163.4c0,20.2-8.8,39.4-24.2,52.5C671,829.3,589.2,861.9,499.9,861.9z"/></g><g></g><g></g><g></g><g></g><g></g><g></g><g></g><g></g><g></g><g></g><g></g><g></g><g></g><g></g><g></g></g>
</svg>